<?xml version="1.0" encoding="UTF-8"?>
<!DOCTYPE svg PUBLIC "-//W3C//DTD SVG 1.1//EN" "http://www.w3.org/Graphics/SVG/1.1/DTD/svg11.dtd">
<!-- Creator: CorelDRAW X7 -->
<svg xmlns="http://www.w3.org/2000/svg" xml:space="preserve" version="1.1" style="shape-rendering:geometricPrecision; text-rendering:geometricPrecision; image-rendering:optimizeQuality; fill-rule:evenodd; clip-rule:evenodd"
viewBox="10930 12980 345 295"
 xmlns:xlink="http://www.w3.org/1999/xlink">
 <defs>
  <style type="text/css">
   <![CDATA[
    .fil0 {fill:#FEFEFE}
    .fil1 {fill:black}
   ]]>
  </style>
 </defs>
 <g id="Layer_x0020_1">
  <metadata id="CorelCorpID_0Corel-Layer"/>
  <g id="_1189390690592">
   <path class="fil0" d="M10994 13186c0,-12 7,-72 5,-80l6 -75c2,-25 6,-27 -17,-25 -41,4 -37,5 -39,35 -5,68 -7,134 -7,203 0,8 -1,15 5,18 10,6 82,-4 100,-6 8,-1 25,0 27,-10 2,-8 9,-37 0,-39 -5,-1 -64,1 -73,0 -9,-1 -7,-4 -7,-21zm54 -38c-2,-11 8,-23 13,-25 2,-1 4,1 5,3 3,4 21,23 18,27 -5,7 -33,15 -36,-5zm29 -75c-8,6 -20,-25 -1,-29 19,-5 15,19 1,29zm-43 30c-44,36 -26,107 43,91 10,-2 20,-7 28,-12 11,-7 7,1 25,10 9,4 13,1 19,-4 22,-23 3,-25 -4,-30 -17,-10 -7,-11 3,-32 1,-4 7,-18 3,-22 -1,-1 -26,-12 -30,-4 -1,2 -8,28 -14,24 -2,-1 -16,-21 -16,-24 0,-7 21,-10 27,-40 5,-22 -10,-46 -33,-47 -41,-2 -68,34 -48,74 6,10 7,8 -3,16zm126 -7c19,17 -17,48 -3,55 17,9 18,15 10,33 -7,14 -21,16 -22,30 -1,24 -8,34 16,31 41,-4 33,4 36,-93 0,-6 -2,-19 5,-21 46,-9 42,9 45,-31 1,-13 1,-17 -9,-17 -20,2 -39,10 -39,-4 1,-29 -2,-28 20,-32 7,-1 41,-2 41,-10 2,-1 1,-8 2,-10 1,-45 5,-35 -65,-28 -50,5 -45,-5 -48,81 0,13 4,9 11,16z"/>
   <path class="fil1" d="M11072 13150c-14,6 -21,-7 -11,-15 3,1 11,12 11,15zm-11 -27c-5,2 -15,14 -13,25 3,20 31,12 36,5 3,-4 -15,-23 -18,-27 -1,-2 -3,-4 -5,-3zm14 -63c-1,-2 -1,-8 4,-7 1,3 -2,7 -4,8l0 -1zm1 -16c-19,4 -7,35 1,29 14,-10 18,-34 -1,-29zm-72 128c4,4 3,7 10,14 3,4 12,11 13,11 -2,1 -20,1 -24,1l1 -26zm114 -112c-6,30 -27,33 -27,40 0,3 14,23 16,24 6,4 13,-22 14,-24 4,-8 29,3 30,4 4,4 -2,18 -3,22 -10,21 -20,22 -3,32 7,5 26,7 4,30 -6,5 -10,8 -19,4 -18,-9 -14,-17 -25,-10 -8,5 -18,10 -28,12 -69,16 -87,-55 -43,-91 10,-8 9,-6 3,-16 -20,-40 7,-76 48,-74 23,1 38,25 33,47zm-119 46c2,8 -5,68 -5,80 0,17 -2,20 7,21 9,1 68,-1 73,0 9,2 2,31 0,39 -2,10 -19,9 -27,10 -18,2 -90,12 -100,6 -6,-3 -5,-10 -5,-18 0,-69 2,-135 7,-203 2,-30 -2,-31 39,-35 23,-2 19,0 17,25l-6 75zm261 -69c0,8 -34,9 -41,10 -22,4 -19,3 -20,32 0,14 19,6 39,4 10,0 10,4 9,17 -3,40 1,22 -45,31 -7,2 -5,15 -5,21 -3,97 5,89 -36,93 -24,3 -17,-7 -16,-31 1,-14 15,-16 22,-30 8,-18 7,-24 -10,-33 -14,-7 22,-38 3,-55 -7,-7 -11,-3 -11,-16 3,-86 -2,-76 48,-81 70,-7 66,-17 65,28 -1,2 0,9 -2,10zm-250 39c8,-88 12,-83 -40,-76 -14,2 -25,4 -28,17 -5,18 -10,186 -9,216 0,45 5,41 48,38 27,-2 55,-5 82,-8 16,-1 20,-9 22,-23 5,-40 -1,-31 -1,-38 26,-9 22,-16 33,-8 5,4 12,7 19,9 2,33 -15,57 34,50 46,-6 30,-11 36,-113 32,-7 49,7 50,-34 0,-6 1,-15 0,-20 -6,-21 -31,-8 -47,-9 -1,-2 0,-16 1,-19 1,-2 17,-3 20,-3 42,-7 42,-2 41,-53 0,-29 -45,-14 -70,-12 -58,5 -56,2 -59,56 -1,13 -3,31 -2,44 -8,0 -16,-5 -23,0 -6,4 -6,13 -9,19 -1,0 -6,-6 -6,-8 11,-12 21,-20 25,-37 10,-52 -41,-72 -75,-54 -50,27 -22,82 -21,85 -10,6 -17,15 -23,24 0,0 0,0 0,0l2 -43z"/>
  </g>
 </g>
</svg>
