<?xml version="1.0" encoding="UTF-8"?>
<!DOCTYPE svg PUBLIC "-//W3C//DTD SVG 1.1//EN" "http://www.w3.org/Graphics/SVG/1.1/DTD/svg11.dtd">
<!-- Creator: CorelDRAW X7 -->
<svg xmlns="http://www.w3.org/2000/svg" xml:space="preserve" width="2438.4mm" height="1219.2mm" version="1.1" style="shape-rendering:geometricPrecision; text-rendering:geometricPrecision; image-rendering:optimizeQuality; fill-rule:evenodd; clip-rule:evenodd"
viewBox="0 0 243840 121920"
 xmlns:xlink="http://www.w3.org/1999/xlink">
 <defs>
  <style type="text/css">
   <![CDATA[
    .fil3 {fill:black}
    .fil0 {fill:#020202}
    .fil5 {fill:#7F7F7F}
    .fil4 {fill:#FBFBFB}
    .fil2 {fill:#FCFCFC}
    .fil1 {fill:#FEFEFE}
   ]]>
  </style>
 </defs>
 <g id="Layer_x0020_1">
  <metadata id="CorelCorpID_0Corel-Layer"/>
  <path class="fil0" d="M99216 70327l371 355c410,604 643,1641 1932,3055 821,901 2975,2369 3099,2582 -505,201 -4744,186 -5572,131l170 -6123zm26812 -26274c-1439,6905 -6436,7722 -6356,9280 39,750 3298,5556 3708,5812 1421,888 3176,-5324 3360,-5738 381,-856 726,-1014 2232,-558 1106,335 4005,980 4706,1587 1090,944 -301,4225 -694,5091 -2271,4996 -4675,5276 -733,7640 2181,1308 3682,1167 3304,2933 -236,1104 -1495,3067 -2345,3937 -1263,1293 -2321,1941 -4338,918 -4215,-2137 -3416,-3871 -5804,-2257 -1911,1293 -4318,2393 -6619,2915 -13651,3097 -19883,-9128 -13242,-18364 848,-1179 2094,-2366 3108,-3206 2255,-1870 2010,-1211 745,-3699 -1529,-3006 -2071,-6875 -667,-10382 586,-1464 1458,-2844 2472,-3844 710,-700 1761,-1475 2746,-1916l393 -175c1991,-1099 3885,-1144 6348,-1021 3965,197 7676,3661 7800,7950 29,1015 69,2171 -124,3097zm-28079 10714c155,669 -189,5432 -291,6344 -225,2014 -438,8933 -536,9486 -162,916 -190,2069 -218,3103 -108,3991 -502,4740 1561,4956 2219,45 15973,-357 17116,-71 1809,454 1129,2678 929,4271l-770 4940c-599,2294 -4421,2016 -6326,2231l-7886 820c-2130,227 -14140,1666 -15718,734 -1353,-799 -1264,-2541 -1260,-4427 9,-4358 -136,-12631 240,-16843l199 -5184c1,-4 -253,159 164,-405 -219,-623 612,-18710 888,-21563 113,-1173 93,-2311 175,-3508 70,-1021 241,-2101 292,-3218 58,-1933 113,-3335 1860,-3780 1371,-348 5412,-1067 7005,-1223 3019,-297 4750,-1503 4184,3116 -104,850 -114,1695 -169,2602l-1439 17619zm61429 -16188c69,1422 -2939,1534 -4257,1684 -1782,203 -3545,406 -5325,707 -2498,422 -3809,-5 -4243,1822 -297,1247 -400,4253 -454,5667 -93,2417 996,1985 3831,1616l5372 -634c2364,-83 2324,1018 2086,3875 -128,1544 113,4313 -567,5464 -753,1275 -2948,1246 -4613,1356l-5409 675c-886,265 -1089,810 -1129,1812 -42,1063 -123,1909 -150,2980 -49,2026 -175,3849 -241,5835 -130,3914 -64,8032 -363,11773 -169,2123 -307,3292 -2461,3622 -1766,271 -3534,510 -5382,703 -1836,192 -3774,767 -3909,-1568 -111,-1904 161,-3881 233,-5839 103,-2770 846,-2201 2422,-3651 970,-891 2019,-2096 2665,-3413 588,-1201 1484,-3203 1025,-4875 -441,-1609 -1985,-2044 -3366,-2720 -2750,-1344 882,-3210 1813,-8430 372,-2087 26,-3602 -1118,-4648 -1601,-1466 -2555,-595 -2523,-3576l560 -11625c740,-6416 -1059,-6266 10785,-7433 1063,-105 4705,-707 5465,-552l2476 -337c1826,-176 5870,-1038 6856,32 820,890 355,3368 339,4793 -9,872 -24,1750 -46,2621 -12,483 49,1983 -372,2264zm-58681 9214c269,-3239 500,-6637 741,-9832 122,-1608 332,-3469 356,-4983 99,-6153 -6675,-3574 -10584,-3031 -3189,442 -5867,858 -6641,3908 -275,1086 -1116,18125 -1233,19862 -116,1702 -206,3443 -235,5099 -30,1712 -238,3368 -235,4997 6,3442 -286,6920 -364,10364 -79,3437 -89,7001 -69,10477 19,3351 -580,6737 1936,8612 1824,1358 6814,562 9348,398 6480,-420 13000,-1145 19393,-1843 3826,-418 4566,-2208 5058,-5561 267,-1824 1061,-5600 653,-7050 -88,-312 -217,-638 -364,-956 -210,-456 -383,-461 -388,-863 1292,-437 2117,-679 3313,-1233 3661,-1695 2151,-2307 4355,-687 1327,976 2891,1780 4558,2237 117,1958 -244,4672 -297,6701 -169,6341 3337,5726 8173,5091 5198,-682 7689,-563 7866,-6276 209,-6717 330,-13659 761,-20365 2721,-595 6130,-458 8677,-1186 3029,-866 2875,-3691 2966,-6904 40,-1403 322,-3467 -22,-4708 -1363,-4919 -7232,-1796 -11081,-2023 -103,-467 55,-3717 315,-4376 216,-546 4002,-788 4766,-910 6511,-1046 9225,320 9478,-6791 64,-1795 115,-3688 96,-5481 -63,-6055 -6506,-3936 -11623,-3541 -1661,128 -3225,452 -4807,583 -1672,138 -3230,378 -4940,561 -9742,1042 -8422,2634 -9037,12707 -191,3115 -610,7237 -405,10381 -1928,-179 -3725,-1362 -5425,-75 -1334,1010 -1309,3071 -2169,4550 -488,-171 -89,121 -770,-925 -258,-395 -494,-696 -547,-1143 424,-443 884,-777 1334,-1172 2150,-1887 3864,-4550 4455,-7441 2488,-12177 -9477,-16902 -17437,-12665 -4801,2555 -7016,6713 -7115,11991 -88,4743 1814,6674 1953,7855 -1076,688 -2882,2418 -3626,3376l-1670 2314c-13,-22 -52,45 -80,65l613 -10108z"/>
  <path class="fil1" d="M112510 58784c664,-254 968,365 1283,783l2852 3686c956,1128 1893,1928 1367,2609 -1208,1560 -7793,3605 -8490,-1217 -374,-2593 1928,-5454 2988,-5861zm3620 -18633c2013,-488 3560,1118 2960,3231 -423,1492 -1727,2930 -2726,3682 -933,701 -1424,-24 -1842,-713 -1660,-2736 -1048,-5556 1608,-6200zm9898 3902c193,-926 153,-2082 124,-3097 -124,-4289 -3835,-7753 -7800,-7950 -2463,-123 -4357,-78 -6348,1021l-393 175c-985,441 -2036,1216 -2746,1916 -1014,1000 -1886,2380 -2472,3844 -1404,3507 -862,7376 667,10382 1265,2488 1510,1829 -745,3699 -1014,840 -2260,2027 -3108,3206 -6641,9236 -409,21461 13242,18364 2301,-522 4708,-1622 6619,-2915 2388,-1614 1589,120 5804,2257 2017,1023 3075,375 4338,-918 850,-870 2109,-2833 2345,-3937 378,-1766 -1123,-1625 -3304,-2933 -3942,-2364 -1538,-2644 733,-7640 393,-866 1784,-4147 694,-5091 -701,-607 -3600,-1252 -4706,-1587 -1506,-456 -1851,-298 -2232,558 -184,414 -1939,6626 -3360,5738 -410,-256 -3669,-5062 -3708,-5812 -80,-1558 4917,-2375 6356,-9280z"/>
  <path class="fil2" d="M159378 38579c-50,-253 47,-2358 47,-2979 0,-1220 102,-1932 198,-3096l-196 -202c-192,-256 -189,-186 -201,-710l-249 348c-373,348 458,-169 -208,120 -71,31 -94,10 -264,82 -686,286 126,-384 -244,151 -26,-30 -111,-161 -132,-172 -11,-6 -45,-24 -58,-28 -14,-4 -52,-13 -67,-14 -222,-13 28,-27 -149,24 -284,84 -173,203 -574,203 171,-49 317,-116 262,-489 -112,-757 -55,82 -734,-959l-480 -470c-238,298 -199,245 -238,925l199 136c529,289 519,112 794,251l-755 11 -202 387c-11,29 -23,157 -36,195l-1667 0 -70 -385c-12,-32 -36,-77 -47,-105l-1815 -225 0 -820c-1236,0 -1791,349 -1918,-40 403,-132 1839,107 1918,-476 -77,-460 82,-191 -222,-329 -411,-186 -584,460 -743,-28 565,-180 191,137 876,-482 18,-17 54,-48 70,-62l151 -118c-786,77 -1738,180 -2499,-17 -760,-155 -4402,447 -5465,552 -11844,1167 -10045,1017 -10785,7433l-560 11625c-32,2981 922,2110 2523,3576 1144,1046 1490,2561 1118,4648 -931,5220 -4563,7086 -1813,8430 1381,676 2925,1111 3366,2720 459,1672 -437,3674 -1025,4875 -646,1317 -1695,2522 -2665,3413 -1576,1450 -2319,881 -2422,3651 -72,1958 -344,3935 -233,5839 135,2335 2073,1760 3909,1568 1848,-193 3616,-432 5382,-703 2154,-330 2292,-1499 2461,-3622 299,-3741 233,-7859 363,-11773 66,-1986 192,-3809 241,-5835 27,-1071 108,-1917 150,-2980 40,-1002 243,-1547 1129,-1812l5409 -675c1665,-110 3860,-81 4613,-1356 680,-1151 439,-3920 567,-5464 238,-2857 278,-3958 -2086,-3875l-5372 634c-2835,369 -3924,801 -3831,-1616 54,-1414 157,-4420 454,-5667 434,-1827 1745,-1400 4243,-1822 1780,-301 3543,-504 5325,-707 1318,-150 4326,-262 4257,-1684z"/>
  <path class="fil1" d="M86508 36433c-51,1117 -222,2197 -292,3218 -82,1197 -62,2335 -175,3508 -276,2853 -1107,20940 -888,21563 223,833 165,2642 -23,3500 133,-54 338,-143 357,-118 -409,131 -208,-64 -301,344 -114,506 261,998 308,1566 67,832 113,1506 113,2494l829 0 4 11193 -833 0 0 2142 832 0 5 1668c341,292 -470,232 472,238l0 1667c-415,191 -383,339 -500,776 -12,46 -81,314 -95,414l1421 0 7 -953 2408 92c667,-261 369,158 450,-449 531,0 734,116 951,-356 -204,-444 -447,-357 -952,-357l0 -834c516,0 1033,-3 1548,0 1004,5 1242,171 1667,-357 -454,-170 -720,-119 -1310,-119l1191 -239c123,-325 50,-215 184,-360 16,-17 42,-35 62,-54l359 -313c36,-33 78,-65 109,-105l-952 0c356,-3 541,-81 766,-64 201,15 861,56 1268,55 791,-1 952,509 1627,129 68,-38 343,-332 387,-359l-96 -252c-215,-226 -99,-103 -142,13 531,0 735,116 952,-356 -179,-390 277,-388 -712,-372 -833,12 -306,153 -1548,27 -868,-88 -2935,106 -121,106 619,0 1314,89 1931,-7 578,-90 247,205 451,-231 1,283 32,528 -53,688 -248,465 -432,152 -542,860l511 258c31,15 74,36 100,49 26,13 67,37 103,50 184,-223 131,-99 226,-472 23,-92 11,-372 11,-481l1311 1c-971,31 -689,-217 -952,357 179,390 -384,365 597,380 1035,16 384,-165 645,-315 203,-117 576,-15 843,104 511,227 645,-294 899,-608l111 -157c868,0 1412,52 1904,-356 -521,-432 -1262,-115 -1905,-119l1906 -120 -1 -1072 716 1c0,1007 -92,508 356,714l303 -363c177,-504 26,-266 -65,-352l1310 -117c-385,0 -701,29 -952,237l592 246c10,3 324,-8 360,-8 -149,1 -461,-17 -592,0 -287,39 71,-97 -335,78 -291,126 -204,109 -382,280 304,231 530,120 960,115 640,-7 152,91 613,215l307 -322c7,-43 12,-72 18,-120 20,-170 6,-424 6,-603 964,-6 635,70 833,-714 -129,-20 -123,10 -221,40 -18,5 -71,20 -91,26 -17,6 -58,23 -73,29 -113,40 -89,296 -91,24 -1039,-21 334,-259 -715,-595 131,106 -103,85 349,56 32,-2 228,-29 267,-40 36,-10 71,-24 106,-36l231 -576 -865 -157c-26,4 -61,12 -87,17l-165 47c-372,107 230,94 -312,94 282,-266 404,-853 173,-1095 -279,-291 113,-124 -529,-215l-120 953c-30,-15 -77,-69 -91,-43l-166 -89c-19,-12 -53,-33 -73,-46 -19,-13 -48,-34 -67,-49 -144,-106 -176,-177 -370,-320 -355,-262 -653,-287 -1138,-287 154,204 1169,181 1459,174 981,-22 -66,4 629,-139 431,-88 587,4 769,-393 -190,-157 122,-401 -1158,-173 -379,67 -679,59 -1101,55 -723,-8 -1732,-213 -1788,595l-715 0c0,-842 399,-730 377,-1426 -1,-34 -6,-83 -20,-122 -273,19 -728,405 -951,595l0 714c-759,5 -590,172 -603,177 -378,130 -435,59 -836,-5 -469,-75 -1247,-149 -1666,-5 -326,113 -123,4 -348,191l0 476c459,381 1328,237 1905,237l0 121c-383,-349 -1137,-238 -1667,-238l-215 246c-13,13 -43,44 -57,55 -74,59 220,58 -205,55 409,-191 238,-325 238,-1072l1634 -452c274,-105 517,-88 747,-262 -237,-457 170,-356 -714,-356 520,642 476,-456 476,-834l714 -120c-556,0 -1370,164 -1916,-19 -796,-268 -154,57 -464,-382 -2063,-216 -1669,-965 -1561,-4956 28,-1034 56,-2187 218,-3103 98,-553 311,-7472 536,-9486 102,-912 446,-5675 291,-6344 -214,-822 266,-3675 274,-4883 17,-2445 484,-7049 712,-9665 72,-820 -67,-1793 20,-2606 112,-1053 224,-175 224,-2132 -906,0 -1013,153 -2006,293 -763,108 -1234,-55 -2042,-55l0 1190 952 0c-67,-223 -390,-118 -714,-118 -284,335 -238,-460 -238,476 -1966,13 -1461,107 -1770,-181l-5849 -176 0 1072 -636 -1c0,-654 93,-1566 -80,-2083 0,1003 62,223 -288,535z"/>
  <path class="fil1" d="M98465 78656c310,439 -332,114 464,382 546,183 1360,19 1916,19l-714 120c0,378 44,1476 -476,834 884,0 477,-101 714,356 -230,174 -473,157 -747,262l-1634 452c0,747 171,881 -238,1072 425,3 131,4 205,-55 14,-11 44,-42 57,-55l215 -246c530,0 1284,-111 1667,238l0 -121c-577,0 -1446,144 -1905,-237l0 -476c225,-187 22,-78 348,-191 419,-144 1197,-70 1666,5 401,64 458,135 836,5 13,-5 -156,-172 603,-177l0 -714c223,-190 678,-576 951,-595 14,39 19,88 20,122 22,696 -377,584 -377,1426l715 0c56,-808 1065,-603 1788,-595 422,4 722,12 1101,-55 1280,-228 968,16 1158,173 -182,397 -338,305 -769,393 -695,143 352,117 -629,139 -290,7 -1305,30 -1459,-174 485,0 783,25 1138,287 194,143 226,214 370,320 19,15 48,36 67,49 20,13 54,34 73,46l166 89c14,-26 61,28 91,43l120 -953c642,91 250,-76 529,215 231,242 109,829 -173,1095 542,0 -60,13 312,-94l165 -47c26,-5 61,-13 87,-17l865 157 -231 576c-35,12 -70,26 -106,36 -39,11 -235,38 -267,40 -452,29 -218,50 -349,-56 1049,336 -324,574 715,595 2,272 -22,16 91,-24 15,-6 56,-23 73,-29 20,-6 73,-21 91,-26 98,-30 92,-60 221,-40 -198,784 131,708 -833,714 0,179 14,433 -6,603 -6,48 -11,77 -18,120l-307 322c-461,-124 27,-222 -613,-215 -430,5 -656,116 -960,-115 178,-171 91,-154 382,-280 406,-175 48,-39 335,-78 131,-17 443,1 592,0 -36,0 -350,11 -360,8l-592 -246c251,-208 567,-237 952,-237l-1310 117c91,86 242,-152 65,352l-303 363c-448,-206 -356,293 -356,-714l-716 -1 1 1072 -1906 120c643,4 1384,-313 1905,119 -492,408 -1036,356 -1904,356l-111 157c-254,314 -388,835 -899,608 -267,-119 -640,-221 -843,-104 -261,150 390,331 -645,315 -981,-15 -418,10 -597,-380 263,-574 -19,-326 952,-357l-1311 -1c0,109 12,389 -11,481 -95,373 -42,249 -226,472 -36,-13 -77,-37 -103,-50 -26,-13 -69,-34 -100,-49l-511 -258c110,-708 294,-395 542,-860 85,-160 54,-405 53,-688 -204,436 127,141 -451,231 -617,96 -1312,7 -1931,7 -2814,0 -747,-194 121,-106 1242,126 715,-15 1548,-27 989,-16 533,-18 712,372 -217,472 -421,356 -952,356 43,-116 -73,-239 142,-13l96 252c-44,27 -319,321 -387,359 -675,380 -836,-130 -1627,-129 -407,1 -1067,-40 -1268,-55 -225,-17 -410,61 -766,64l952 0c-31,40 -73,72 -109,105l-359 313c-20,19 -46,37 -62,54 -134,145 -61,35 -184,360l-1191 239c590,0 856,-51 1310,119 -425,528 -663,362 -1667,357 -515,-3 -1032,0 -1548,0l0 834c505,0 748,-87 952,357 -217,472 -420,356 -951,356 -81,607 217,188 -450,449l-2408 -92 -7 953 -1421 0c14,-100 83,-368 95,-414 117,-437 85,-585 500,-776l0 -1667c-942,-6 -131,54 -472,-238l-5 -1668 -832 0 0 -2142 833 0 -4 -11193 -829 0c0,-988 -46,-1662 -113,-2494 -47,-568 -422,-1060 -308,-1566 93,-408 -108,-213 301,-344 -19,-25 -224,64 -357,118 188,-858 246,-2667 23,-3500 -417,564 -163,401 -164,405l-199 5184c-376,4212 -231,12485 -240,16843 -4,1886 -93,3628 1260,4427 1578,932 13588,-507 15718,-734l7886 -820c1905,-215 5727,63 6326,-2231l770 -4940c200,-1593 880,-3817 -929,-4271 -1143,-286 -14897,116 -17116,71z"/>
  <path class="fil2" d="M86508 36433c350,-312 288,468 288,-535 173,517 80,1429 80,2083l636 1 0 -1072 5849 176c309,288 -196,194 1770,181 0,-936 -46,-141 238,-476 324,0 647,-105 714,118l-952 0 0 -1190c808,0 1279,163 2042,55 993,-140 1100,-293 2006,-293 0,1957 -112,1079 -224,2132 -87,813 52,1786 -20,2606 -228,2616 -695,7220 -712,9665 -8,1208 -488,4061 -274,4883l1439 -17619c55,-907 65,-1752 169,-2602 566,-4619 -1165,-3413 -4184,-3116 -1593,156 -5634,875 -7005,1223 -1747,445 -1802,1847 -1860,3780z"/>
  <path class="fil3" d="M115243 65127c-1011,452 -2762,791 -3414,-257 -663,-1066 371,-2884 804,-3216 399,167 531,524 748,818 249,336 408,563 659,897 410,544 1108,1223 1203,1758zm-2733 -6343c-1060,407 -3362,3268 -2988,5861 697,4822 7282,2777 8490,1217 526,-681 -411,-1481 -1367,-2609l-2852 -3686c-315,-418 -619,-1037 -1283,-783z"/>
  <path class="fil0" d="M115862 44147c-42,-108 -269,-755 17,-1353 189,-395 516,-529 1018,-509 64,540 -20,855 -230,1270 -395,775 -408,670 -700,784l-105 -192zm268 -3996c-2656,644 -3268,3464 -1608,6200 418,689 909,1414 1842,713 999,-752 2303,-2190 2726,-3682 600,-2113 -947,-3719 -2960,-3231z"/>
  <path class="fil4" d="M150125 29206c761,197 1713,94 2499,17l-151 118c-16,14 -52,45 -70,62 -685,619 -311,302 -876,482 159,488 332,-158 743,28 304,138 145,-131 222,329 -79,583 -1515,344 -1918,476 127,389 682,40 1918,40l0 820 1815 225c11,28 35,73 47,105l70 385 1667 0c13,-38 25,-166 36,-195l202 -387 755 -11c-275,-139 -265,38 -794,-251l-199 -136c39,-680 0,-627 238,-925l480 470c679,1041 622,202 734,959 55,373 -91,440 -262,489 401,0 290,-119 574,-203 177,-51 -73,-37 149,-24 15,1 53,10 67,14 13,4 47,22 58,28 21,11 106,142 132,172 370,-535 -442,135 244,-151 170,-72 193,-51 264,-82 666,-289 -165,228 208,-120l249 -348c12,524 9,454 201,710l196 202c-96,1164 -198,1876 -198,3096 0,621 -97,2726 -47,2979 421,-281 360,-1781 372,-2264 22,-871 37,-1749 46,-2621 16,-1425 481,-3903 -339,-4793 -986,-1070 -5030,-208 -6856,-32l-2476 337z"/>
  <path class="fil5" d="M173370 115253c420,369 1184,473 1775,1068 525,528 724,1391 1068,1774 345,-402 547,-1244 1066,-1776 521,-535 1357,-699 1777,-1066 -429,-377 -1200,-488 -1777,-1068 -524,-527 -722,-1391 -1066,-1776 -338,389 -548,1244 -1067,1777 -515,528 -1366,699 -1776,1067z"/>
 </g>
</svg>
