<?xml version="1.0" standalone="no"?>
<!DOCTYPE svg PUBLIC "-//W3C//DTD SVG 20010904//EN"
 "http://www.w3.org/TR/2001/REC-SVG-20010904/DTD/svg10.dtd">
<svg version="1.0" xmlns="http://www.w3.org/2000/svg"
 width="1600.000000pt" height="896.000000pt" viewBox="0 0 1600.000000 896.000000"
 preserveAspectRatio="xMidYMid meet">

<g transform="translate(0.000000,896.000000) scale(0.100000,-0.100000)"
fill="#000000" stroke="none">
<path d="M0 4480 l0 -4480 8000 0 8000 0 0 4480 0 4480 -8000 0 -8000 0 0
-4480z m8085 1730 c-2 -3 27 -6 64 -6 67 -2 199 -36 236 -61 14 -9 15 -13 5
-13 -8 0 -28 -7 -44 -15 -25 -13 -27 -13 -22 0 4 12 -4 15 -39 15 -33 0 -45 4
-45 15 0 8 -9 15 -20 15 -11 0 -20 4 -20 9 0 5 -46 13 -102 17 -57 5 -89 10
-73 13 l30 4 -30 8 c-25 6 -22 7 17 6 25 -1 45 -4 43 -7z m55 -39 c25 -5 39
-9 33 -10 -7 0 -13 -14 -13 -29 0 -25 -4 -28 -37 -30 -20 -2 -40 -5 -45 -8 -4
-3 -8 2 -8 10 0 9 -4 16 -10 16 -5 0 -10 9 -10 20 0 16 7 20 33 22 27 1 26 2
-13 8 -41 6 -42 7 -10 8 19 0 55 -3 80 -7z m-113 -39 c2 -18 0 -32 -6 -32 -6
0 -9 -76 -8 -210 1 -115 5 -210 8 -210 8 0 17 90 25 263 4 75 11 137 15 137 5
0 9 -62 9 -139 0 -76 2 -165 4 -197 2 -32 1 -42 -1 -21 -6 54 -26 47 -21 -8 2
-26 -1 -45 -7 -46 -17 -1 129 -38 150 -38 11 1 -8 8 -42 16 -35 9 -63 20 -63
26 0 5 8 6 18 1 9 -4 44 -9 77 -10 l60 -2 -50 7 c-44 7 -48 11 -15 15 6 0 17
13 25 29 13 26 13 27 -11 27 -25 0 -33 -15 -12 -22 8 -3 7 -6 -3 -10 -11 -4
-16 2 -17 23 l-2 29 65 0 65 0 0 40 c0 29 4 40 15 40 11 0 15 11 15 40 l0 40
40 0 40 0 0 -40 0 -40 80 0 80 0 0 -40 0 -40 40 0 40 0 0 -40 0 -40 40 0 40 0
0 -40 c0 -36 3 -40 25 -40 23 0 25 -4 25 -40 0 -29 4 -40 15 -40 11 0 15 -11
15 -40 l0 -40 -40 0 -40 0 0 -40 0 -40 -89 0 c-72 0 -90 -3 -95 -16 -11 -29
-5 -39 9 -14 14 24 14 23 11 -20 -5 -62 4 -110 20 -110 9 0 14 12 14 35 0 24
5 35 15 35 9 0 15 -9 14 -22 0 -22 -1 -22 -8 -3 -6 14 -10 2 -15 -44 -8 -66
-4 -76 29 -84 11 -3 -5 -5 -36 -6 l-56 -1 -6 63 c-3 34 -2 63 3 65 4 2 5 13 2
24 -5 21 -6 21 -13 2 -7 -18 -8 -17 -8 3 -1 12 -10 38 -21 58 -11 19 -20 37
-20 40 0 11 -79 111 -111 141 -19 17 -51 41 -72 53 -20 13 -34 27 -31 33 4 6
2 8 -3 5 -6 -4 -31 2 -56 13 -24 11 -79 25 -121 32 l-76 12 0 259 c0 196 3
258 12 255 6 -2 13 -19 15 -36z m453 -25 c119 -61 230 -138 304 -212 l25 -25
-22 -16 c-14 -10 -16 -14 -5 -11 10 3 19 -1 22 -10 7 -18 9 -16 -22 -32 -15
-8 -21 -18 -18 -27 5 -12 -1 -15 -22 -12 -25 3 -27 6 -24 43 2 22 8 45 14 50
8 7 9 6 4 -2 -5 -9 -2 -11 8 -7 28 11 16 30 -16 25 -4 0 -3 11 2 25 6 15 6 23
1 19 -5 -3 -12 -2 -14 3 -3 4 -53 6 -111 5 -94 -2 -104 -1 -99 14 5 12 2 15
-8 11 -12 -5 -16 3 -17 36 0 22 1 35 4 29 3 -7 13 -13 22 -13 12 0 11 4 -6 23
-12 13 -22 30 -22 39 0 22 -46 41 -70 28 -10 -6 -28 -6 -40 -2 -21 8 -21 9 11
25 43 21 45 21 99 -6z m-247 -14 c-7 -2 -19 -2 -25 0 -7 3 -2 5 12 5 14 0 19
-2 13 -5z m-73 -53 l0 -40 -40 0 -40 0 0 40 0 40 40 0 40 0 0 -40z m780 -330
c52 -76 92 -159 86 -176 -3 -8 0 -13 6 -11 15 3 68 -166 71 -223 1 -25 4 -47
8 -50 3 -3 9 -35 11 -72 l6 -68 -37 1 c-20 0 -58 4 -86 9 l-50 7 43 2 c53 1
56 21 2 21 -22 0 -40 5 -40 10 0 6 -33 10 -80 10 -64 0 -80 3 -80 15 0 11 11
15 40 15 l40 0 0 40 0 40 55 0 56 0 -3 123 c-2 91 -6 121 -15 120 -15 -3 -17
13 -3 22 6 3 10 14 10 23 0 15 -2 15 -11 2 -8 -12 -9 -11 -6 5 2 11 9 19 17
17 11 -3 11 0 1 12 -7 8 -9 21 -5 27 5 8 3 9 -5 5 -7 -5 -10 -14 -7 -22 9 -25
-21 -15 -52 16 -17 17 -25 30 -19 30 8 0 8 3 0 11 -6 6 -9 18 -6 25 3 8 0 14
-6 14 -6 0 -11 9 -11 20 0 12 -7 20 -16 20 -13 0 -15 -8 -12 -35 3 -31 1 -35
-18 -35 -19 0 -23 6 -25 43 -2 24 -3 51 -1 61 3 15 5 15 20 -2 9 -10 13 -13 9
-6 -4 7 -5 24 -1 38 4 16 2 26 -5 26 -6 0 -11 6 -11 13 1 16 83 -74 130 -143z
m-794 48 c3 -4 2 -14 -3 -23 -8 -14 -11 -13 -21 9 -9 19 -8 24 3 22 8 -1 17
-5 21 -8z m502 -524 c-3 -27 -4 -26 -9 8 -3 22 -1 34 4 29 5 -5 7 -21 5 -37z
m72 -49 c0 -11 -11 -15 -40 -15 -29 0 -40 4 -40 15 0 11 11 15 40 15 29 0 40
-4 40 -15z m63 -62 c-13 -2 -33 -2 -45 0 -13 2 -3 4 22 4 25 0 35 -2 23 -4z
m-1323 -25 c1 -2 8 -37 16 -78 8 -41 16 -85 17 -97 1 -11 6 -19 11 -15 5 3 6
-3 2 -14 -4 -10 -4 -15 0 -11 10 10 37 -31 29 -43 -4 -6 -3 -9 2 -8 4 2 8 -1
8 -7 0 -5 -4 -9 -8 -7 -5 1 -6 -2 -2 -8 3 -6 11 -8 16 -4 5 3 30 -17 54 -44
25 -28 65 -62 90 -77 25 -14 45 -28 45 -32 0 -3 -10 1 -22 9 -19 12 -27 12
-48 1 -18 -9 -20 -13 -8 -13 9 0 20 4 23 10 4 6 16 3 31 -6 13 -9 27 -14 31
-10 3 3 12 -3 20 -13 18 -27 70 -52 76 -37 3 6 -6 12 -19 12 -13 1 -31 9 -39
18 -20 20 -12 20 25 1 17 -9 31 -15 32 -14 2 1 33 -4 70 -11 53 -11 68 -18 72
-34 11 -39 7 -1468 -4 -1461 -6 3 -11 62 -12 133 l-2 127 -6 -125 c-3 -69 -7
201 -10 600 l-5 725 -3 -724 c-2 -679 -1 -725 15 -737 10 -7 14 -16 10 -20 -4
-5 -12 -2 -16 5 -6 9 -11 10 -15 2 -4 -6 0 -14 8 -17 9 -3 16 -15 16 -25 0
-21 16 -26 23 -6 2 6 4 -3 4 -21 0 -18 -3 -29 -7 -25 -4 4 -29 37 -56 74 -27
36 -59 79 -72 96 -13 17 -39 48 -58 70 -19 21 -34 44 -34 51 0 6 -4 12 -10 12
-5 0 -6 7 -3 17 4 11 3 14 -5 9 -7 -4 -22 9 -37 31 -13 21 -33 49 -42 63 -10
13 -12 21 -5 16 6 -4 12 -2 12 3 0 6 -7 11 -15 11 -9 0 -15 10 -15 26 0 14 4
23 10 19 6 -3 10 -13 10 -21 0 -8 5 -14 11 -14 6 0 9 -9 6 -20 -3 -11 3 -29
14 -41 10 -12 21 -30 24 -40 4 -11 10 -17 15 -14 12 7 -12 65 -27 65 -7 0 -13
7 -13 15 0 8 5 15 10 15 6 0 10 -5 10 -11 0 -8 6 -7 17 2 15 12 16 12 10 -3
-9 -26 21 -116 43 -128 11 -6 20 -18 20 -27 0 -13 2 -14 18 -2 15 12 16 12 4
-2 -7 -9 -10 -24 -6 -33 13 -35 21 -2 23 99 l2 105 -40 0 c-38 0 -41 -2 -41
-27 0 -14 -2 -24 -5 -21 -3 2 -2 32 1 66 6 57 9 62 30 62 24 0 24 1 24 120 0
73 -4 120 -10 120 -5 0 -10 18 -10 40 0 29 -4 40 -15 40 -12 0 -15 16 -15 80
l0 80 -40 0 -40 0 0 -40 0 -40 -80 0 -80 0 0 80 0 80 -40 0 -40 0 0 40 0 40
-40 0 -40 0 0 40 0 40 -79 0 c-94 0 -101 -10 -65 -86 20 -42 23 -45 23 -22 1
40 21 45 21 6 0 -19 5 -39 12 -46 9 -9 7 -12 -10 -12 -21 0 -21 -1 6 -43 21
-35 29 -41 39 -31 7 7 13 24 13 39 0 22 2 24 13 13 8 -7 16 -20 20 -28 4 -12
6 -12 6 2 1 9 -3 20 -9 23 -5 3 -10 15 -10 26 0 10 5 19 10 19 6 0 10 -6 10
-14 0 -7 3 -28 6 -45 6 -27 4 -31 -15 -31 -14 0 -25 -10 -34 -31 l-12 -31 -44
78 c-24 44 -51 90 -60 104 -8 14 -14 31 -13 38 2 6 -2 12 -7 12 -6 0 -26 32
-46 71 -19 38 -31 67 -25 64 5 -3 10 -1 10 4 0 6 -7 11 -15 11 -9 0 -20 11
-25 25 -5 14 -28 65 -50 112 -22 47 -38 88 -35 91 3 3 -1 12 -9 21 -21 25 -57
146 -50 166 5 12 4 16 -4 11 -7 -4 -14 4 -18 21 -3 15 -10 43 -15 62 -4 19 -6
38 -3 43 3 5 1 15 -5 22 -6 7 -14 41 -18 76 -5 53 -4 62 8 56 8 -4 6 -1 -3 7
-10 8 -18 24 -18 36 0 21 0 21 300 21 165 0 300 -1 300 -2z m-183 -960 c-3 -8
-6 -5 -6 6 -1 11 2 17 5 13 3 -3 4 -12 1 -19z m83 -185 c0 -22 -8 -14 -19 20
-10 29 -9 30 4 13 8 -11 15 -26 15 -33z m-25 -13 c-4 -14 -2 -20 6 -18 7 2 13
-6 14 -17 0 -13 8 -21 23 -23 17 -3 23 -9 21 -25 -2 -12 1 -33 5 -46 6 -18 10
-21 17 -10 12 19 11 32 -1 24 -15 -9 -12 1 4 14 12 10 14 7 11 -18 -3 -23 2
-35 23 -51 26 -20 26 -21 3 -15 l-23 7 23 -31 c27 -36 33 -39 24 -10 -5 13 -3
19 3 15 16 -10 21 -44 6 -50 -17 -6 -73 73 -66 93 2 8 0 11 -6 7 -12 -7 -45
40 -37 54 3 5 -3 15 -13 22 -38 28 -68 98 -41 98 6 0 8 -9 4 -20z m105 -55 c0
-8 -2 -15 -4 -15 -2 0 -6 7 -10 15 -3 8 -1 15 4 15 6 0 10 -7 10 -15z m78 -68
c-1 -13 -7 -24 -13 -24 -6 0 -12 11 -13 24 -1 14 4 23 13 23 9 0 14 -9 13 -23z
m32 -147 c0 -6 -7 -13 -15 -16 -8 -4 -15 -13 -15 -21 0 -11 -6 -8 -19 8 -11
13 -18 26 -16 29 7 11 65 10 65 0z m30 -44 c0 -14 5 -28 11 -31 6 -4 8 -14 5
-22 -3 -8 3 -33 14 -55 11 -23 18 -43 16 -45 -8 -8 -43 53 -38 66 2 8 0 11 -6
7 -14 -8 -44 41 -40 67 5 40 38 51 38 13z m100 -32 c0 -8 -7 -22 -15 -30 -13
-14 -15 -14 -15 -1 0 23 11 47 21 47 5 0 9 -7 9 -16z m0 -68 c0 -11 -19 -15
-25 -6 -3 5 1 10 9 10 9 0 16 -2 16 -4z"/>
<path d="M8138 6193 c7 -3 16 -2 19 1 4 3 -2 6 -13 5 -11 0 -14 -3 -6 -6z"/>
<path d="M8340 6146 c14 -8 27 -12 29 -10 6 6 -1 11 -29 18 l-25 7 25 -15z"/>
<path d="M8288 5743 c7 -3 16 -2 19 1 4 3 -2 6 -13 5 -11 0 -14 -3 -6 -6z"/>
<path d="M8286 5638 c-15 -46 -13 -58 10 -73 13 -8 30 -15 39 -15 9 0 18 -7
21 -15 8 -21 44 -19 44 2 0 14 2 14 23 -3 12 -10 7 -2 -11 18 -19 19 -30 38
-25 40 4 3 2 3 -5 1 -8 -1 -28 -3 -45 -4 -32 -1 -32 -1 8 -13 23 -7 41 -19 43
-29 4 -21 -14 -23 -22 -2 -3 8 -13 15 -23 15 -10 0 -26 7 -36 14 -16 12 -16
14 -2 20 10 3 15 15 13 28 -3 25 -26 36 -32 16z"/>
<path d="M8385 5499 c3 -3 15 -4 29 -2 13 3 27 0 30 -6 4 -6 15 -11 24 -11 15
1 14 3 -3 15 -18 15 -88 18 -80 4z"/>
<path d="M8408 5473 c7 -3 16 -2 19 1 4 3 -2 6 -13 5 -11 0 -14 -3 -6 -6z"/>
<path d="M8442 5445 c0 -16 2 -22 5 -12 2 9 2 23 0 30 -3 6 -5 -1 -5 -18z"/>
<path d="M8459 5419 c-6 -13 -7 -19 -1 -15 6 3 12 3 15 -1 2 -5 2 -2 0 6 -2 8
2 18 9 23 10 6 10 8 1 8 -7 0 -17 -10 -24 -21z"/>
<path d="M8491 5357 c-1 -8 27 -67 32 -67 2 0 3 16 3 35 0 25 -3 32 -12 24 -8
-7 -14 -6 -17 3 -3 7 -6 9 -6 5z"/>
<path d="M8543 5185 c0 -27 2 -38 4 -22 2 15 2 37 0 50 -2 12 -4 0 -4 -28z"/>
<path d="M8396 6105 c-11 -8 -15 -15 -9 -15 7 0 15 5 19 11 3 6 15 9 25 6 11
-3 17 -1 13 4 -8 13 -26 11 -48 -6z"/>
<path d="M8478 6088 c12 -6 22 -16 22 -23 0 -21 39 -50 51 -38 8 8 5 13 -10
18 -12 3 -21 12 -21 19 0 7 -11 18 -25 24 -33 15 -48 14 -17 0z"/>
<path d="M8578 6032 c11 -7 10 -11 -5 -17 -10 -5 -24 -7 -30 -6 -8 1 -10 -4
-7 -14 3 -8 15 -15 25 -15 13 0 17 5 12 17 -5 12 -2 15 9 10 11 -4 15 0 14 11
-2 9 -9 18 -17 20 -11 3 -12 2 -1 -6z"/>
<path d="M8633 6000 c14 -11 28 -20 32 -20 4 0 -4 9 -18 20 -14 11 -28 20 -32
20 -4 0 4 -9 18 -20z"/>
<path d="M8644 5950 c0 -8 10 -16 22 -16 17 -1 21 2 17 14 -5 11 -3 13 8 7 8
-5 11 -5 6 1 -14 15 -53 11 -53 -6z"/>
<path d="M8710 5940 c0 -5 5 -10 11 -10 5 0 7 5 4 10 -3 6 -8 10 -11 10 -2 0
-4 -4 -4 -10z"/>
<path d="M8840 5801 c0 -6 11 -18 25 -27 14 -9 22 -21 18 -27 -4 -6 -1 -7 7
-2 10 6 12 4 6 -11 -4 -10 -4 -15 0 -11 4 4 14 1 22 -6 13 -10 12 -7 -1 13
-22 34 -77 84 -77 71z"/>
<path d="M8900 5707 c0 -2 6 -10 14 -16 11 -9 16 -9 22 1 4 7 4 10 -1 6 -4 -4
-14 -3 -22 3 -7 6 -13 9 -13 6z"/>
<path d="M9041 5464 c0 -11 3 -14 6 -6 3 7 2 16 -1 19 -3 4 -6 -2 -5 -13z"/>
<path d="M9001 5454 c0 -11 3 -14 6 -6 3 7 2 16 -1 19 -3 4 -6 -2 -5 -13z"/>
<path d="M9040 5406 c0 -8 4 -17 9 -20 5 -4 7 3 4 14 -6 23 -13 26 -13 6z"/>
<path d="M9050 5355 c0 -5 5 -17 10 -25 5 -8 10 -10 10 -5 0 6 -5 17 -10 25
-5 8 -10 11 -10 5z"/>
<path d="M9040 5290 c0 -5 5 -10 11 -10 5 0 7 5 4 10 -3 6 -8 10 -11 10 -2 0
-4 -4 -4 -10z"/>
<path d="M9071 5284 c0 -11 3 -14 6 -6 3 7 2 16 -1 19 -3 4 -6 -2 -5 -13z"/>
<path d="M9050 5210 c0 -5 5 -10 10 -10 6 0 10 5 10 10 0 6 -4 10 -10 10 -5 0
-10 -4 -10 -10z"/>
<path d="M9060 5140 c0 -5 5 -10 10 -10 6 0 10 5 10 10 0 6 -4 10 -10 10 -5 0
-10 -4 -10 -10z"/>
<path d="M7320 5080 l-45 -8 57 1 c32 0 61 -2 65 -6 3 -4 -59 -8 -138 -8 -79
-1 -161 -2 -181 -2 -21 -1 -38 -4 -38 -8 0 -4 72 -5 159 -2 119 5 168 3 191
-7 27 -11 33 -11 41 1 6 9 4 15 -6 17 -8 2 -15 8 -15 14 0 6 9 8 20 5 11 -3
18 -1 14 4 -6 10 -57 10 -124 -1z"/>
<path d="M6933 5073 c37 -2 97 -2 135 0 37 2 6 3 -68 3 -74 0 -105 -1 -67 -3z"/>
<path d="M6908 5053 c12 -2 30 -2 40 0 9 3 -1 5 -23 4 -22 0 -30 -2 -17 -4z"/>
<path d="M7423 5000 c-20 -8 -23 -17 -23 -59 0 -27 5 -53 11 -57 8 -5 10 4 6
32 -3 21 -3 31 -1 22 8 -26 44 -4 43 25 -1 21 -1 21 -10 -3 -7 -21 -8 -19 -4
13 2 20 3 37 2 36 -1 0 -12 -4 -24 -9z"/>
<path d="M6951 4974 c0 -11 3 -14 6 -6 3 7 2 16 -1 19 -3 4 -6 -2 -5 -13z"/>
<path d="M6911 4930 c0 -8 4 -24 9 -35 l9 -20 0 20 c0 11 -4 27 -9 35 -9 13
-10 13 -9 0z"/>
<path d="M6951 4915 c-1 -11 -4 -31 -6 -45 l-6 -25 11 25 c6 13 9 33 7 45 -4
19 -4 19 -6 0z"/>
<path d="M7442 4900 c-7 -12 -8 -20 -2 -20 5 0 10 6 10 13 0 8 4 7 10 -3 5 -8
10 -10 10 -5 0 6 -4 15 -8 22 -6 9 -11 7 -20 -7z"/>
<path d="M6950 4818 c0 -19 -2 -20 -11 -8 -8 11 -9 9 -3 -10 13 -47 19 -49 21
-4 1 24 0 44 -3 44 -2 0 -4 -10 -4 -22z"/>
<path d="M7440 4776 c0 -43 3 -56 15 -56 11 0 15 12 15 44 0 26 -6 48 -15 56
-13 11 -15 5 -15 -44z"/>
<path d="M6947 4709 c4 -13 8 -18 11 -10 2 7 -1 18 -6 23 -8 8 -9 4 -5 -13z"/>
<path d="M7523 4715 c6 -16 34 -17 40 -2 4 11 -1 14 -19 13 -13 0 -22 -5 -21
-11z"/>
<path d="M7593 4685 c-7 -8 -13 -18 -13 -24 0 -15 30 -22 48 -11 14 9 13 10
-6 5 -20 -6 -22 -4 -16 19 7 29 4 31 -13 11z"/>
<path d="M6974 4627 c3 -10 6 -24 7 -30 0 -7 5 -1 10 12 5 13 7 26 4 29 -3 3
-5 -1 -5 -9 0 -12 -2 -11 -11 1 -9 12 -10 12 -5 -3z"/>
<path d="M7021 4626 c-7 -8 -8 -17 -3 -20 6 -3 12 3 15 14 6 24 4 25 -12 6z"/>
<path d="M7855 4575 c2 -18 -1 -23 -10 -15 -12 10 -35 -5 -35 -23 0 -11 60 1
78 16 11 9 10 12 -3 19 -8 5 -13 13 -10 19 4 5 0 9 -9 9 -9 0 -13 -8 -11 -25z"/>
<path d="M7906 4582 c6 -4 12 -43 13 -92 1 -47 5 -87 8 -90 2 -3 3 34 1 83 -2
53 1 87 7 87 6 0 3 5 -5 10 -8 5 -19 10 -25 10 -6 0 -5 -3 1 -8z"/>
<path d="M7006 4561 c-7 -11 24 -81 36 -81 4 0 5 -6 2 -14 -3 -7 2 -16 10 -19
9 -4 16 -17 16 -30 0 -13 7 -32 16 -43 8 -10 12 -13 9 -6 -4 7 -9 28 -12 45
-2 18 -9 36 -14 42 -11 11 -12 25 -1 25 11 0 32 -45 33 -73 2 -33 17 61 18
111 l1 42 -39 0 c-22 0 -46 3 -54 6 -8 3 -18 1 -21 -5z m32 -24 c2 -9 -1 -17
-7 -17 -6 0 -7 7 -4 17 4 11 3 14 -5 9 -7 -4 -12 -2 -12 4 0 18 25 6 28 -13z
m72 -67 c0 -5 -2 -10 -4 -10 -3 0 -8 5 -11 10 -3 6 -1 10 4 10 6 0 11 -4 11
-10z"/>
<path d="M7968 3971 c1 -327 4 -596 6 -598 7 -7 5 988 -2 1092 -4 55 -6 -167
-4 -494z"/>
<path d="M7134 4432 c-18 -11 -24 -64 -12 -102 25 -80 48 -134 54 -127 6 6
-15 76 -28 92 -10 11 -10 25 0 25 9 0 32 -49 32 -69 0 -27 11 -3 15 32 2 27
-1 34 -13 33 -25 -2 -28 34 -3 41 12 3 21 10 21 15 0 6 -7 7 -16 4 -13 -5 -14
-3 -7 6 11 16 -27 60 -43 50z"/>
<path d="M7923 4080 c0 -47 2 -66 4 -42 2 23 2 61 0 85 -2 23 -4 4 -4 -43z"/>
<path d="M7920 3474 c0 -267 -1 -285 -17 -280 -14 4 -18 0 -19 -19 -1 -14 2
-25 7 -25 5 0 9 5 9 10 0 6 5 10 10 10 6 0 4 -11 -5 -23 -14 -22 -14 -25 5
-42 20 -18 20 -18 20 318 0 186 -2 337 -5 337 -3 0 -5 -129 -5 -286z"/>
<path d="M7770 3276 c0 -2 8 -10 18 -17 15 -13 16 -12 3 4 -13 16 -21 21 -21
13z"/>
<path d="M7842 3194 c10 -10 20 -15 24 -12 3 4 -5 12 -18 18 -22 12 -22 12 -6
-6z"/>
<path d="M7561 3579 c5 -11 15 -17 20 -13 14 9 6 27 -14 30 -14 2 -15 -1 -6
-17z"/>
</g>
</svg>
